<svg width="649" height="124" viewBox="0 0 649 124" fill="none" xmlns="http://www.w3.org/2000/svg">
<g clip-path="url(#clip0_1_2)">
<path fill-rule="evenodd" clip-rule="evenodd" d="M0 17.5L50.3546 10.6424L50.3766 59.2131L0.0483788 59.4996L0 17.5ZM50.332 64.8083L50.3711 113.421L0.0428928 106.501L0.0398939 64.484L50.332 64.8083ZM56.4359 9.74438L123.201 0V58.594L56.4359 59.124V9.74438ZM123.216 65.2657L123.2 123.595L56.4352 114.172L56.3416 65.1553L123.216 65.2657Z" fill="#00CCFF"/>
<path d="M264.862 20.9772C263.054 20.9773 261.518 21.5991 260.253 22.8424C258.988 24.0858 258.354 25.6154 258.354 27.4304C258.354 29.2713 258.982 30.7982 260.237 32.0123C261.492 33.2266 263.034 33.8346 264.862 33.8345C266.705 33.8346 268.269 33.2054 269.55 31.9458C270.83 30.6864 271.469 29.1807 271.469 27.4301C271.469 25.6238 270.827 24.0978 269.54 22.8501C268.252 21.6025 266.693 20.9773 264.862 20.9772ZM375.345 21.0149V50.8003C372.036 46.7535 367.167 44.722 360.726 44.722C353.148 44.7221 347.103 47.4169 342.594 52.8079C338.084 58.199 335.83 65.3057 335.83 74.1264C335.83 82.3854 337.872 88.9448 341.955 93.806C346.038 98.6676 351.536 101.099 358.449 101.099C365.839 101.099 371.47 98.5642 375.345 93.4995V99.8843H385.93V21.0168L375.345 21.0149ZM619.507 23.9525C616.473 23.9525 613.625 24.4467 610.964 25.4349C608.303 26.4232 606.012 27.7906 604.091 29.5345C602.169 31.2785 600.666 33.3424 599.581 35.728C598.496 38.1136 597.952 40.7128 597.952 43.5267C597.952 47.0813 598.93 50.3068 600.884 53.2023C602.838 56.0981 605.288 58.1229 608.235 59.2745C606.44 59.6169 604.66 60.5171 602.899 61.9757C601.138 63.4344 599.665 65.0495 598.477 66.8214C597.29 68.5933 596.381 70.4826 595.753 72.4915C595.124 74.5002 594.809 76.5313 594.809 78.5851C594.809 81.9029 595.42 84.9424 596.639 87.7003C597.859 90.4582 599.575 92.826 601.786 94.8058C603.997 96.7854 606.599 98.3216 609.591 99.413C612.582 100.505 615.887 101.05 619.507 101.05C623.143 101.05 626.466 100.505 629.477 99.413C632.488 98.3215 635.091 96.7853 637.286 94.8058C639.481 92.8261 641.181 90.4518 642.388 87.6806C643.594 84.9097 644.198 81.8768 644.198 78.5848C644.198 76.5632 643.881 74.5403 643.247 72.5145C642.613 70.4886 641.7 68.5853 640.505 66.8036C639.31 65.0221 637.846 63.4067 636.116 61.9598C634.386 60.513 632.639 59.6155 630.874 59.2645C633.744 58.1191 636.159 56.0936 638.12 53.1904C640.08 50.2871 641.059 47.066 641.059 43.5261C641.059 40.7725 640.522 38.1951 639.448 35.7955C638.374 33.396 636.877 31.3274 634.958 29.5865C633.039 27.8459 630.746 26.4711 628.083 25.4634C625.42 24.4559 622.562 23.9525 619.507 23.9525ZM200.886 25.0657L183.855 85.9124L167.693 25.0733L156.216 25.1035L177.498 98.8837L189.762 98.7605L205.711 40.8165L221.73 98.8247L233.978 98.9476L254.601 25.0729L243.381 25.1353L227.967 86.6811L211.898 25.1013L200.886 25.0657ZM619.544 33.0092C621.052 33.0093 622.467 33.29 623.789 33.853C625.11 34.416 626.269 35.1952 627.265 36.1908C628.261 37.1867 629.043 38.3613 629.613 39.7123C630.182 41.0634 630.468 42.5531 630.468 44.185C630.468 45.7417 630.172 47.1989 629.58 48.5541C628.987 49.9095 628.199 51.0864 627.216 52.0854C626.233 53.0844 625.085 53.8708 623.767 54.4467C622.449 55.0227 621.041 55.312 619.545 55.3119C618.035 55.312 616.635 55.0334 615.343 54.478C614.051 53.9225 612.901 53.1383 611.89 52.1264C610.879 51.1145 610.091 49.9433 609.525 48.6127C608.959 47.2822 608.675 45.8062 608.675 44.185C608.675 42.6026 608.939 41.131 609.466 39.7671C609.994 38.4032 610.738 37.2252 611.697 36.2359C612.656 35.2466 613.799 34.4617 615.128 33.8804C616.458 33.2991 617.93 33.0093 619.544 33.0092ZM421.622 44.5972C413.18 44.5972 406.472 47.1387 401.499 52.2201C396.526 57.3017 394.04 64.2949 394.04 73.2025C394.04 81.4132 396.43 88.033 401.208 93.0598C405.986 98.087 412.385 100.601 420.405 100.601C428.619 100.601 435.169 98.0159 440.054 92.8489C444.939 87.6819 447.382 80.8648 447.382 72.3979C447.382 63.7681 445.109 56.977 440.565 52.0247C436.022 47.0728 429.706 44.5972 421.622 44.5972ZM548.414 44.7223C546.091 44.7223 543.81 45.0617 541.568 45.7418C539.327 46.4222 537.323 47.4388 535.562 48.7887C533.801 50.1387 532.39 51.8156 531.33 53.82C530.27 55.8245 529.74 58.1355 529.74 60.7536C529.74 62.8872 530.024 64.7549 530.592 66.3589C531.159 67.963 532 69.3904 533.111 70.6404C534.223 71.8902 535.58 72.9964 537.183 73.9588C538.787 74.9212 540.647 75.8749 542.763 76.8201C544.081 77.3949 545.396 77.9864 546.709 78.5936C548.021 79.2007 549.105 79.8407 549.961 80.5134C550.817 81.1863 551.484 81.9341 551.961 82.7576C552.438 83.5811 552.676 84.5883 552.676 85.781C552.676 89.9555 549.768 92.0449 543.953 92.0449C539.348 92.0449 534.581 90.3729 529.652 87.0294V97.5823C533.621 99.9269 538.073 101.1 543.007 101.1C545.527 101.1 547.926 100.785 550.205 100.155C552.483 99.5237 554.517 98.5435 556.304 97.2151C558.092 95.8867 559.533 94.1939 560.627 92.1388C561.72 90.0837 562.265 87.6944 562.265 84.9709C562.265 82.7533 561.932 80.818 561.261 79.1621C560.591 77.5065 559.643 76.0543 558.42 74.8066C557.196 73.5589 555.77 72.4676 554.138 71.5332C552.507 70.5988 550.596 69.6598 548.409 68.7168C546.883 68.0408 545.552 67.4332 544.413 66.8906C543.275 66.3481 542.327 65.7566 541.57 65.1172C540.812 64.4778 540.25 63.7726 539.882 63.0039C539.514 62.2353 539.331 61.2486 539.331 60.0429C539.331 59.1236 539.512 58.2918 539.874 57.5468C540.237 56.8019 540.767 56.1479 541.464 55.5859C542.161 55.024 543.012 54.5825 544.015 54.2617C545.018 53.9408 546.154 53.7813 547.421 53.7812C551.603 53.7813 555.847 55.0317 560.15 57.5312V47.455C556.456 45.6337 552.544 44.7223 548.414 44.7223ZM291.644 54.4878L291.584 46.2262L281.484 46.2692L281.441 98.937L291.714 99.025L291.847 69.6362C291.875 63.4064 292.449 61.4569 295.548 57.892C298.074 54.9878 301.582 53.4488 305.363 53.4488C313.235 53.3751 316.548 59.2731 316.548 69.6362V99.025H326.691L326.603 67.5113C326.603 60.3722 325.444 54.3238 322.244 50.4214C319.043 46.5191 314.598 44.8765 308.554 44.8765C300.399 44.8764 295.375 48.8877 291.644 54.4878ZM449.318 46.0641L465.65 99.0114H475.936L488.33 58.2114L499.426 99.0417L510.381 98.9793L525.885 46.0622H515.412L505.115 89.3415L505.471 90.6579L493.365 46.0595H483.805L471.453 88.7644L460.289 46.0595L449.318 46.0641ZM269.485 46.1578L259.244 46.2201L259.463 98.8878L269.422 98.9661L269.485 46.1578ZM421.013 53.5951C425.996 53.5952 429.839 55.2278 432.543 58.4934C435.246 61.7592 436.595 66.4962 436.595 72.7006C436.595 78.8473 435.248 83.5347 432.551 86.7631C429.853 89.9915 426.006 91.6051 421.013 91.6051C416.092 91.6051 412.164 89.9573 409.228 86.6637C406.293 83.3701 404.824 78.7834 404.824 72.9021C404.824 66.7917 406.28 62.0462 409.191 58.6657C412.102 55.2856 416.042 53.5951 421.013 53.5951ZM361.784 53.7807C365.681 53.7807 368.914 55.129 371.484 57.8255C374.053 60.5222 375.337 63.8293 375.337 67.7453V75.3958C375.337 80.2593 373.991 84.249 371.3 87.3663C368.609 90.4838 365.133 92.0439 360.872 92.0439C356.549 92.0439 353.09 90.4309 350.497 87.2079C347.904 83.9849 346.609 79.4894 346.609 73.7219C346.609 67.3878 347.968 62.4816 350.689 59.001C353.409 55.5207 357.108 53.7807 361.784 53.7807ZM619.544 64.1676C621.592 64.1676 623.435 64.5225 625.074 65.234C626.712 65.9456 628.128 66.93 629.32 68.1852C630.511 69.4404 631.432 70.8974 632.08 72.5562C632.728 74.2151 633.05 75.9884 633.05 77.8767C633.05 79.978 632.708 81.8864 632.025 83.6011C631.341 85.316 630.406 86.758 629.22 87.9295C628.034 89.1007 626.62 90.0117 624.978 90.6619C623.336 91.3121 621.525 91.6365 619.545 91.6365C617.469 91.6365 615.609 91.3228 613.965 90.6931C612.32 90.0634 610.918 89.1597 609.758 87.9841C608.597 86.8086 607.696 85.3756 607.054 83.6834C606.413 81.9912 606.092 80.0557 606.092 77.8769C606.092 75.8403 606.437 73.9795 607.131 72.2968C607.824 70.6142 608.77 69.1738 609.969 67.9745C611.167 66.7753 612.584 65.8414 614.22 65.1718C615.857 64.5022 617.63 64.1676 619.544 64.1676Z" fill="#00CCFF"/>
</g>
<defs>
<clipPath id="clip0_1_2">
<rect width="648.227" height="123.594" fill="white"/>
</clipPath>
</defs>
</svg>
